<?xml version="1.0" encoding="utf-8"?>
<svg viewBox="-12.244 -11.619 73.148 57.024" xmlns="http://www.w3.org/2000/svg">
  <path style="stroke: rgb(0, 0, 0); stroke-width: 3px; fill: rgb(118, 128, 83);" d="M -3.948 -11.297 C -2.341 -11.584 0.153 -11.849 2.278 -11.297 C 4.669 -10.675 5.64 -9.945 9.637 -7.334 C 18.521 -1.533 53.514 21.304 59.169 29.178 C 61.67 32.66 60.908 34.701 60.301 37.103 C 59.691 39.515 57.668 42.333 55.489 43.612 C 53.261 44.921 51.462 46.232 46.998 44.745 C 36.64 41.294 -4.165 12.694 -10.458 4.27 C -13.098 0.737 -12.198 -1.253 -11.59 -3.655 C -10.98 -6.067 -8.258 -8.956 -6.779 -10.165 C -5.778 -10.982 -5.156 -11.081 -3.948 -11.297 Z"/>
</svg>