<?xml version="1.0" encoding="utf-8"?>
<svg viewBox="-7.292 -9.04 54.464 35.975" xmlns="http://www.w3.org/2000/svg">
  <path fill="rgb(255,0,0)" stroke="rgb(255,0,0)" stroke-width="0" d="M 0.58 -9.033 C 4.673 -8.884 18.361 -4.515 26.053 -1.108 C 33.266 2.087 42.622 6.442 45.583 10.497 C 47.587 13.242 47.358 16.466 46.715 18.988 C 46.086 21.453 44.033 24.225 41.903 25.498 C 39.783 26.765 37.879 27.333 33.978 26.63 C 26.683 25.315 4.919 15.179 -1.118 11.346 C -4.144 9.425 -4.931 8.56 -5.93 6.534 C -6.996 4.373 -7.67 1.011 -7.062 -1.391 C -6.452 -3.803 -3.73 -6.692 -2.251 -7.901 C -1.25 -8.718 -1.139 -9.095 0.58 -9.033 Z" style="fill: rgb(166, 209, 48); stroke: rgb(129, 151, 57); stroke-width: 2px;"/>
</svg>