<?xml version="1.0" encoding="utf-8"?>
<svg viewBox="-12.941 -45.411 76.118 57.742" xmlns="http://www.w3.org/2000/svg">
  <path fill="rgb(255,0,0)" stroke="rgb(255,0,0)" stroke-width="0" d="M 49.249 -44.844 C 53.025 -46.051 53.976 -45.076 55.986 -44.283 C 58.001 -43.488 60.144 -42.066 61.321 -40.071 C 62.645 -37.826 63.577 -33.91 63.005 -31.087 C 62.419 -28.193 61.375 -26.408 57.671 -22.946 C 50.369 -16.121 22.898 0.618 13.313 6.252 C 7.929 9.417 5.341 11.047 2.083 11.867 C -0.457 12.506 -2.56 12.465 -4.656 11.867 C -6.774 11.262 -9.196 10.23 -10.551 8.217 C -12.175 5.805 -13.365 0.595 -12.797 -2.451 C -12.283 -5.208 -11.667 -6.276 -8.024 -9.47 C 0.315 -16.782 39.779 -41.818 49.249 -44.844 Z" style="fill: rgb(166, 209, 48); stroke: rgb(129, 151, 57); stroke-width: 2px;"/>
</svg>