<?xml version="1.0" encoding="UTF-8" standalone="no"?>
<!-- Created with Inkscape (http://www.inkscape.org/) -->

<svg
   version="1.1"
   id="svg2"
   xml:space="preserve"
   width="1076"
   height="669.33331"
   viewBox="0 0 1076 669.33331"
   sodipodi:docname="bolsonaro-presidente-seeklogo.com.eps"
   xmlns:inkscape="http://www.inkscape.org/namespaces/inkscape"
   xmlns:sodipodi="http://sodipodi.sourceforge.net/DTD/sodipodi-0.dtd"
   xmlns="http://www.w3.org/2000/svg"
   xmlns:svg="http://www.w3.org/2000/svg"><defs
     id="defs6" /><sodipodi:namedview
     id="namedview4"
     pagecolor="#ffffff"
     bordercolor="#666666"
     borderopacity="1.0"
     inkscape:pageshadow="2"
     inkscape:pageopacity="0.0"
     inkscape:pagecheckerboard="0" /><g
     id="g8"
     inkscape:groupmode="layer"
     inkscape:label="ink_ext_XXXXXX"
     transform="matrix(0,1.3333333,1.3333333,0,0,0)"><g
       id="g10"
       transform="scale(0.1)"><path
         d="m 2218.42,8037.21 c 63.2,-7.5 118,46.2 181.8,21.3 13.1,-15 25.1,-35 47.7,-35.1 20.6,-6.3 49.4,0.4 61.4,-22 1.7,-7.8 5.1,-23.3 6.7,-31 -21.7,-11.1 -44.2,-20.8 -67.8,-27.1 -60.3,-17.2 -116.7,-48.3 -179.5,-56.3 -30.8,-5.1 -66,-2.4 -89,-27.9 119.2,6.8 238.9,11.5 358,-1 -7.1,11.2 -14.2,22.5 -19.3,34.8 34.3,43.6 93.1,54.4 139.4,81.2 93.1,40.3 198.1,73.5 299.8,50.6 19.4,-66.9 98,-57.9 151.7,-71.2 48.9,-11 66.7,-60.3 95.1,-95 48.7,-41.9 106.6,-71.7 157.9,-110.3 90.6,-72.3 173,-154.2 249.1,-241.5 51.5,-61.2 106.9,-122.7 133.8,-199.5 11.4,-31.1 10,-67.6 31.5,-94.4 27.8,-36.5 59.1,-70.8 80.8,-111.7 79.3,-137.9 100,-301.6 92.7,-458.3 -9.5,-217.2 -24.7,-434.2 -51.8,-650 -5.5,-49.5 -21.7,-96.9 -36.1,-144.3 61.82,-31.26 40.91,-127.7 28.7,-185.3 -12.9,-54.2 -0.7,-111.6 -21.8,-164.1 -19.9,24.7 -8.2,56.2 -5.9,84.4 4.4,37.7 13.2,77.5 0.1,114.4 -11.8,27.5 -28.6,52.4 -42.8,78.5 -15.7,-26.3 -46.9,-48.8 -40.8,-83.1 5.4,-60.5 -5.7,-122.7 13.4,-181.6 12.7,-40.8 21.1,-89.5 -4.8,-127.2 -19.2,-29 -52.2,-62.3 -31.1,-99.5 10.2,-45.5 65,-29.6 97,-21.8 -1.08,-50.32 -18.2,-99.67 -84.7,-83.3 -18.2,-0.4 -39.7,12.1 -55.4,-1.8 -10.5,-20.1 -12,-43.2 -16.1,-65.2 -19.6,-126.4 -63.4,-247.1 -97.2,-370 -50.7,-204.9 -80,-414.7 -94.8,-625.1 -8.3,-74.9 -28,-148.4 -55,-218.7 -94,-257.5 -299.5,-452.9 -512.4,-615.8 0.7,-7.5 2.2,-22.6 2.9,-30.2 40,5.1 84.1,19.3 121.1,-4.2 60.1,-35.6 108.7,-87.5 153.5,-140.4 98.2,-112.1 164.2,-247.2 227.3,-380.9 30.9,-58.8 65.2,-118.7 67,-187.1 -49.3,11.4 -75.1,56.9 -91.9,100.4 -50.3,114.8 -159.7,207.3 -287.4,216.5 -42.3,-39.4 -35.2,-101.7 -48.9,-153.2 -4.6,-27.7 -25.7,-47.6 -44.2,-67 28.3,-136.1 107.5,-253.4 155.5,-382.3 19.3,-49 27,-101.3 40.5,-152 H 8.32031 v 1120.4 c 78.29689,26.1 157.89869,49.4 232.19969,86 211.097,100.1 424.398,195.3 633.3,300 64.2,31.7 116.797,82.5 160.2,138.7 84.8,110 157.3,229.4 216.4,355 29.3,61.9 71.9,129 142.7,146.5 20.6,42.5 2,88.7 -1.4,132.8 -10.4,63.8 -5.3,128.9 -15.8,192.6 -4,32.6 -12.2,64.6 -14.5,97.3 -4.3,25.1 18.9,41.3 33,58.3 -4.6,51.3 -47.3,87.4 -59.9,136.2 -19.9,78.7 -20.9,163.6 -62.6,235.6 -37.5,-15.1 -69.8,-50.2 -113.2,-44.1 -51,5.4 -99.8,42.1 -117.2,90.7 29.5,5.2 55.7,-7.9 79.3,-24.1 20.3,-16.1 46.3,-9.5 69.3,-5.4 15.9,38.9 41.5,79.1 34.1,122.8 -7.1,42.7 -60,57.2 -66.5,100.2 -1.8,42.6 32.9,77.7 28,120.8 -2.8,44.4 -14.5,87.7 -17.2,132.2 -28.8,-42.4 -25.6,-93.4 -29.7,-142 0.2,-43.3 -60.4,-50.4 -85,-23.4 -4.8,27.9 18.3,50.4 18.9,77.3 -18.3,34.6 -50.8,59.5 -71,93.2 -30.103,63.7 -21.904,135.1 -17.103,203 5.602,64.9 -19.101,126.5 -37.699,187.4 -27.199,100.3 -54.199,200.7 -78.699,301.7 -35.699,157.3 -30.903,320.4 -11.899,479.6 32.496,195.9 110.5,384 226.3,545.4 106,151.3 230.9,289.6 370.7,410.3 23.7,20 53.1,53.8 87.4,35.9 1,-3.8 3.1,-11.2 4.1,-15 62.7,72 147,127.6 240.1,150.6 44.5,10 65.1,61.6 111.7,67 107.9,20.7 210.2,70.8 321.8,70.8 z m -106.8,-81.1 v 0 c 0.4,-15.4 0.9,-30.8 1.4,-46.2 6.2,3 18.7,8.9 24.9,11.9 23.9,-3.5 48.2,-4.2 72.3,-1.4 0.9,15.8 16.8,44.9 -2.8,53.1 -32.1,-4.7 -65.6,-3.9 -95.8,-17.4 z m 312.9,-211.2 v 0 c -1,-4.5 -2.9,-13.5 -3.9,-18 58.5,-1.2 110.3,29.5 157.2,61.2 -54.1,6.2 -117.4,4.6 -153.3,-43.2 z m 43.9,-122 v 0 c 62.9,-35.6 136.7,-19.3 203.4,-5.9 -65.9,16.3 -138,32.4 -203.4,5.9 z m -723.2,-276.4 v 0 c -101.1,-42.3 -199.6,-94.2 -282.4,-166.8 -30.7,-29.9 -62.6,-60.4 -81.6,-99.5 -29.1,-54.2 -36.9,-116.8 -38.2,-177.5 -3.9,-37.5 33.8,-58.8 45.6,-90.9 32.3,-110.8 38.4,-226.6 52.2,-340.5 -8.8,-25.8 -28.2,-45.4 -41.2,-68.6 -1.4,-22.2 15.4,-39.7 24.3,-58.7 0.7,35.2 2.6,76.2 34.1,98.7 55.6,44.1 74.7,116.5 110.1,174.1 39.3,49.2 106.9,39 161.9,31.7 42.8,-3.4 75.4,-38.9 119.1,-38.6 85,0.4 163.4,47.8 249.3,39.4 110.8,-6.9 206,-71.1 296.9,-128.7 33.5,-37.6 57.6,-86.4 59.6,-137.5 1.5,-40 -0.4,-80 -1.7,-120 -0.1,-51.4 -46.5,-94.4 -95.7,-100.8 -21.8,-1.2 -33.9,18.9 -50.7,28.7 -38.1,23.8 -78.6,-11.9 -119.1,-5.7 -53.7,1.4 -89.5,48.2 -119.5,87 -18.5,-35.7 -39.3,-72.8 -74.5,-94.6 -43.3,-28.6 -96.1,-34.2 -146.4,-39.4 33.3,-7.5 67.1,-14.3 101.4,-13.9 37.3,-1.1 73.1,12 110.3,13.1 3.1,-6.5 9.3,-19.4 12.4,-25.9 -8.9,-10.5 -15.7,-24.2 -29,-29.8 -111.6,-41.1 -226,-78 -344.7,-91.2 -27.4,-6.1 -47.2,15.3 -58.8,37 -40.6,11.2 -85.5,10.5 -121.4,35.2 -50.7,28.3 -90.1,73.5 -116.8,124.5 -12,28.3 -30.1,64.2 -4.7,91 -16.2,3.2 -32.8,4.4 -49.1,6.8 -0.6,-48.2 -46.9,-75.8 -56.4,-120.7 -13.9,-52.8 0.5,-107.4 -7.3,-160.8 -2.3,-16.9 -3.4,-34.2 0.8,-51.1 30.9,-6.3 55.8,-25.2 68.7,-54.2 22.6,-27 16.7,-62.6 18.5,-95.1 22.1,-37 50.5,-70.7 64.2,-112.2 32.5,-100.1 28.5,-207.1 39.4,-310.6 10.3,-56.1 44.9,-103.1 63.3,-156.3 9.2,-22.6 14.5,-50.4 38.7,-62.3 111.5,-65.9 253.3,-106.7 316.3,-230.3 l 37.8,-65.6 c 19.7,-16.1 47,-19 69.8,-29.8 23.6,-80 26.2,-177.8 97.7,-233.1 60.7,-38.1 131.5,-55.7 199.6,-75.5 29.8,-6.1 45.4,25.7 70.9,32 69.3,-3.8 140.6,-23.2 209.1,-2.9 45.7,12.7 70.1,67 120.7,66.5 38.8,-2.4 64.4,-34.1 94.5,-54.5 35.9,-25.4 81.5,-27.8 123.9,-31.3 65.8,-4 136,-10.2 196.9,20.2 45.7,18.7 68.3,65.7 96.9,102.6 27.6,26.2 70.6,40.3 80.6,81.1 14.7,39.3 -14,77.1 -8.4,116.8 33.6,4 73.6,-8.7 99.7,19.3 55.1,49.5 39.1,135.3 82.2,192.2 24.6,26.5 62,30.8 96.2,31.5 21.8,52.6 39,106.9 53,162.1 15.3,64.7 53.8,122.6 57,190.4 4.5,96.2 0.6,192.7 6.4,288.9 3,64.2 46.6,117.2 52,180.9 8.9,47.3 -7.2,93.7 -16.1,139.7 -22.5,97.8 -38,198.6 -79.7,290.7 16.3,-62.1 -4.9,-127.8 -36.8,-181.3 -34.5,-47.9 -97.7,-48.5 -147.6,-69.6 -29.4,-10.4 -50.9,-33.7 -71.7,-55.7 -104.3,32.2 -213.6,42.7 -318.7,71.1 -24.3,5.4 -43.3,22.9 -54.9,44.3 2.9,6.2 8.7,18.7 11.6,24.9 20.5,8.7 42.5,10.1 63.8,3.3 65.8,-9.5 140.3,-30.7 200.4,9.1 -49.4,21.1 -101.4,-6.9 -152,0.7 -36.9,11.2 -70.9,33.1 -110.4,34.9 -51.4,5.6 -98.5,-21.3 -149.2,-23.9 -30.9,-1.7 -60.9,-9.2 -90.5,-18 -26.7,0.9 -40.1,29.2 -49.9,50.2 -28,79.1 -39.2,164 -33.7,247.7 2.3,23.7 6.2,50.3 24.1,67.6 54.8,26.7 109.9,53.7 168.4,71 50,15.4 101.8,-5.8 152.6,2.6 118.8,16.7 240.1,42.6 359.7,18.4 45,-6.3 86.4,-25.6 128.6,-41.2 12,2.7 23.9,5.4 36,8 -35.4,73.4 15.8,150.4 0.4,226.4 -32.7,146 -149.5,258 -279.6,323 -70.2,31.6 -150,30.5 -220.6,60.6 -39.1,22 -78.2,49.9 -124.9,51.2 -164.5,10.8 -332.4,5.7 -492.7,50.2 -102.8,33.7 -211.9,37.5 -318.2,52.9 -69.5,8.7 -137.8,31.3 -208.6,24.9 -62.5,-4.5 -117.8,-36.4 -174.2,-60.5 z m 914.7,-2835 v 0 c 1.8,-10.5 3.8,-21 5.8,-31.6 25.9,-3.9 57,6.2 51.5,38.9 -19.6,1.8 -38.9,-0.6 -57.3,-7.3 z m -829.7,-599.1 c 39.3,-31.5 86.4,-60.1 138.5,-59 3.6,4.7 10.7,14.3 14.2,19 -28.1,63.8 -57.9,136.4 -125.1,167.9 -31.32,13.44 -85.03,13.43 -78.5,71.2 -9.03,-49.15 2.91,-172.88 50.9,-199.1 z m -393.7,-24.6 c 11.2,-41.6 37.5,-76.7 55.1,-115.6 36.9,-78.8 88.8,-148.8 132.1,-223.9 153.3,-250.2 310.1,-498.1 464.8,-747.4 72.3,-110.77 397.48,-674.97 424.1,-697.8 11.1,158.1 38.5,314.5 74.8,468.7 7.7,35.5 19,80.4 -12.4,108 -42.8,41 -107,37.2 -162,39.7 -21.8,-1.3 -45.4,18.6 -31.5,40.9 33.7,77.2 75.8,150.6 115.1,225.1 25.5,43.8 54.4,99.1 110.3,106.2 62.6,3.1 127.4,-14.5 178.9,-50.6 39.3,-25.8 87.4,-32.8 132.9,-40.8 19.5,3.4 47,18.5 37.8,42.6 -19.7,29.6 -46,54.3 -72.1,78.1 -67.2,54.5 -158,54 -236.9,80.6 23.7,21.7 56.2,27.4 83.5,43.2 -108.7,44.2 -189.4,135.7 -297.7,180.4 -18.4,8 -32.5,22.4 -47.9,34.7 -76,63.1 -166.7,105.2 -257.9,141.5 -185.7,70.7 -361.9,169.5 -513.4,298.6 -58.6,50.1 -103.6,113.3 -149,174.9 -33.95,-55.08 -46.18,-124.39 -28.6,-187.1 z m 1279.9,-1416.5 v 0 c -18.7,-21 -39.2,-43.9 -41.2,-73.5 -3.3,-41.5 -1.4,-85.6 -24.1,-122.5 30.8,2.5 72.6,-5.1 88.4,29.6 16,55.7 -2.1,114.6 -23.1,166.4"
         style="fill:#231f20;fill-opacity:1;fill-rule:nonzero;stroke:none"
         id="path12" /><path
         d="m 2218.42,8037.21 c 63.2,-7.5 118,46.2 181.8,21.3 13.1,-15 25.1,-35 47.7,-35.1 20.6,-6.3 49.4,0.4 61.4,-22 1.7,-7.8 5.1,-23.3 6.7,-31 -21.7,-11.1 -44.2,-20.8 -67.8,-27.1 -60.3,-17.2 -116.7,-48.3 -179.5,-56.3 -30.8,-5.1 -66,-2.4 -89,-27.9 119.2,6.8 238.9,11.5 358,-1 -7.1,11.2 -14.2,22.5 -19.3,34.8 34.3,43.6 93.1,54.4 139.4,81.2 93.1,40.3 198.1,73.5 299.8,50.6 19.4,-66.9 98,-57.9 151.7,-71.2 48.9,-11 66.7,-60.3 95.1,-95 48.7,-41.9 106.6,-71.7 157.9,-110.3 90.6,-72.3 173,-154.2 249.1,-241.5 51.5,-61.2 106.9,-122.7 133.8,-199.5 11.4,-31.1 10,-67.6 31.5,-94.4 27.8,-36.5 59.1,-70.8 80.8,-111.7 79.3,-137.9 100,-301.6 92.7,-458.3 -9.5,-217.2 -24.7,-434.2 -51.8,-650 -5.5,-49.5 -21.7,-96.9 -36.1,-144.3 61.82,-31.26 40.91,-127.7 28.7,-185.3 -12.9,-54.2 -0.7,-111.6 -21.8,-164.1 -19.9,24.7 -8.2,56.2 -5.9,84.4 4.4,37.7 13.2,77.5 0.1,114.4 -11.8,27.5 -28.6,52.4 -42.8,78.5 -15.7,-26.3 -46.9,-48.8 -40.8,-83.1 5.4,-60.5 -5.7,-122.7 13.4,-181.6 12.7,-40.8 21.1,-89.5 -4.8,-127.2 -19.2,-29 -52.2,-62.3 -31.1,-99.5 10.2,-45.5 65,-29.6 97,-21.8 -1.08,-50.32 -18.2,-99.67 -84.7,-83.3 -18.2,-0.4 -39.7,12.1 -55.4,-1.8 -10.5,-20.1 -12,-43.2 -16.1,-65.2 -19.6,-126.4 -63.4,-247.1 -97.2,-370 -50.7,-204.9 -80,-414.7 -94.8,-625.1 -8.3,-74.9 -28,-148.4 -55,-218.7 -94,-257.5 -299.5,-452.9 -512.4,-615.8 0.7,-7.5 2.2,-22.6 2.9,-30.2 40,5.1 84.1,19.3 121.1,-4.2 60.1,-35.6 108.7,-87.5 153.5,-140.4 98.2,-112.1 164.2,-247.2 227.3,-380.9 30.9,-58.8 65.2,-118.7 67,-187.1 -49.3,11.4 -75.1,56.9 -91.9,100.4 -50.3,114.8 -159.7,207.3 -287.4,216.5 -42.3,-39.4 -35.2,-101.7 -48.9,-153.2 -4.6,-27.7 -25.7,-47.6 -44.2,-67 28.3,-136.1 107.5,-253.4 155.5,-382.3 19.3,-49 27,-101.3 40.5,-152 H 8.32031 v 1120.4 c 78.29689,26.1 157.89869,49.4 232.19969,86 211.097,100.1 424.398,195.3 633.3,300 64.2,31.7 116.797,82.5 160.2,138.7 84.8,110 157.3,229.4 216.4,355 29.3,61.9 71.9,129 142.7,146.5 20.6,42.5 2,88.7 -1.4,132.8 -10.4,63.8 -5.3,128.9 -15.8,192.6 -4,32.6 -12.2,64.6 -14.5,97.3 -4.3,25.1 18.9,41.3 33,58.3 -4.6,51.3 -47.3,87.4 -59.9,136.2 -19.9,78.7 -20.9,163.6 -62.6,235.6 -37.5,-15.1 -69.8,-50.2 -113.2,-44.1 -51,5.4 -99.8,42.1 -117.2,90.7 29.5,5.2 55.7,-7.9 79.3,-24.1 20.3,-16.1 46.3,-9.5 69.3,-5.4 15.9,38.9 41.5,79.1 34.1,122.8 -7.1,42.7 -60,57.2 -66.5,100.2 -1.8,42.6 32.9,77.7 28,120.8 -2.8,44.4 -14.5,87.7 -17.2,132.2 -28.8,-42.4 -25.6,-93.4 -29.7,-142 0.2,-43.3 -60.4,-50.4 -85,-23.4 -4.8,27.9 18.3,50.4 18.9,77.3 -18.3,34.6 -50.8,59.5 -71,93.2 -30.103,63.7 -21.904,135.1 -17.103,203 5.602,64.9 -19.101,126.5 -37.699,187.4 -27.199,100.3 -54.199,200.7 -78.699,301.7 -35.699,157.3 -30.903,320.4 -11.899,479.6 32.496,195.9 110.5,384 226.3,545.4 106,151.3 230.9,289.6 370.7,410.3 23.7,20 53.1,53.8 87.4,35.9 1,-3.8 3.1,-11.2 4.1,-15 62.7,72 147,127.6 240.1,150.6 44.5,10 65.1,61.6 111.7,67 107.9,20.7 210.2,70.8 321.8,70.8 z m -106.8,-81.1 v 0 c 0.4,-15.4 0.9,-30.8 1.4,-46.2 6.2,3 18.7,8.9 24.9,11.9 23.9,-3.5 48.2,-4.2 72.3,-1.4 0.9,15.8 16.8,44.9 -2.8,53.1 -32.1,-4.7 -65.6,-3.9 -95.8,-17.4 z m 312.9,-211.2 v 0 c -1,-4.5 -2.9,-13.5 -3.9,-18 58.5,-1.2 110.3,29.5 157.2,61.2 -54.1,6.2 -117.4,4.6 -153.3,-43.2 z m 43.9,-122 v 0 c 62.9,-35.6 136.7,-19.3 203.4,-5.9 -65.9,16.3 -138,32.4 -203.4,5.9 z m -723.2,-276.4 v 0 c -101.1,-42.3 -199.6,-94.2 -282.4,-166.8 -30.7,-29.9 -62.6,-60.4 -81.6,-99.5 -29.1,-54.2 -36.9,-116.8 -38.2,-177.5 -3.9,-37.5 33.8,-58.8 45.6,-90.9 32.3,-110.8 38.4,-226.6 52.2,-340.5 -8.8,-25.8 -28.2,-45.4 -41.2,-68.6 -1.4,-22.2 15.4,-39.7 24.3,-58.7 0.7,35.2 2.6,76.2 34.1,98.7 55.6,44.1 74.7,116.5 110.1,174.1 39.3,49.2 106.9,39 161.9,31.7 42.8,-3.4 75.4,-38.9 119.1,-38.6 85,0.4 163.4,47.8 249.3,39.4 110.8,-6.9 206,-71.1 296.9,-128.7 33.5,-37.6 57.6,-86.4 59.6,-137.5 1.5,-40 -0.4,-80 -1.7,-120 -0.1,-51.4 -46.5,-94.4 -95.7,-100.8 -21.8,-1.2 -33.9,18.9 -50.7,28.7 -38.1,23.8 -78.6,-11.9 -119.1,-5.7 -53.7,1.4 -89.5,48.2 -119.5,87 -18.5,-35.7 -39.3,-72.8 -74.5,-94.6 -43.3,-28.6 -96.1,-34.2 -146.4,-39.4 33.3,-7.5 67.1,-14.3 101.4,-13.9 37.3,-1.1 73.1,12 110.3,13.1 3.1,-6.5 9.3,-19.4 12.4,-25.9 -8.9,-10.5 -15.7,-24.2 -29,-29.8 -111.6,-41.1 -226,-78 -344.7,-91.2 -27.4,-6.1 -47.2,15.3 -58.8,37 -40.6,11.2 -85.5,10.5 -121.4,35.2 -50.7,28.3 -90.1,73.5 -116.8,124.5 -12,28.3 -30.1,64.2 -4.7,91 -16.2,3.2 -32.8,4.4 -49.1,6.8 -0.6,-48.2 -46.9,-75.8 -56.4,-120.7 -13.9,-52.8 0.5,-107.4 -7.3,-160.8 -2.3,-16.9 -3.4,-34.2 0.8,-51.1 30.9,-6.3 55.8,-25.2 68.7,-54.2 22.6,-27 16.7,-62.6 18.5,-95.1 22.1,-37 50.5,-70.7 64.2,-112.2 32.5,-100.1 28.5,-207.1 39.4,-310.6 10.3,-56.1 44.9,-103.1 63.3,-156.3 9.2,-22.6 14.5,-50.4 38.7,-62.3 111.5,-65.9 253.3,-106.7 316.3,-230.3 l 37.8,-65.6 c 19.7,-16.1 47,-19 69.8,-29.8 23.6,-80 26.2,-177.8 97.7,-233.1 60.7,-38.1 131.5,-55.7 199.6,-75.5 29.8,-6.1 45.4,25.7 70.9,32 69.3,-3.8 140.6,-23.2 209.1,-2.9 45.7,12.7 70.1,67 120.7,66.5 38.8,-2.4 64.4,-34.1 94.5,-54.5 35.9,-25.4 81.5,-27.8 123.9,-31.3 65.8,-4 136,-10.2 196.9,20.2 45.7,18.7 68.3,65.7 96.9,102.6 27.6,26.2 70.6,40.3 80.6,81.1 14.7,39.3 -14,77.1 -8.4,116.8 33.6,4 73.6,-8.7 99.7,19.3 55.1,49.5 39.1,135.3 82.2,192.2 24.6,26.5 62,30.8 96.2,31.5 21.8,52.6 39,106.9 53,162.1 15.3,64.7 53.8,122.6 57,190.4 4.5,96.2 0.6,192.7 6.4,288.9 3,64.2 46.6,117.2 52,180.9 8.9,47.3 -7.2,93.7 -16.1,139.7 -22.5,97.8 -38,198.6 -79.7,290.7 16.3,-62.1 -4.9,-127.8 -36.8,-181.3 -34.5,-47.9 -97.7,-48.5 -147.6,-69.6 -29.4,-10.4 -50.9,-33.7 -71.7,-55.7 -104.3,32.2 -213.6,42.7 -318.7,71.1 -24.3,5.4 -43.3,22.9 -54.9,44.3 2.9,6.2 8.7,18.7 11.6,24.9 20.5,8.7 42.5,10.1 63.8,3.3 65.8,-9.5 140.3,-30.7 200.4,9.1 -49.4,21.1 -101.4,-6.9 -152,0.7 -36.9,11.2 -70.9,33.1 -110.4,34.9 -51.4,5.6 -98.5,-21.3 -149.2,-23.9 -30.9,-1.7 -60.9,-9.2 -90.5,-18 -26.7,0.9 -40.1,29.2 -49.9,50.2 -28,79.1 -39.2,164 -33.7,247.7 2.3,23.7 6.2,50.3 24.1,67.6 54.8,26.7 109.9,53.7 168.4,71 50,15.4 101.8,-5.8 152.6,2.6 118.8,16.7 240.1,42.6 359.7,18.4 45,-6.3 86.4,-25.6 128.6,-41.2 12,2.7 23.9,5.4 36,8 -35.4,73.4 15.8,150.4 0.4,226.4 -32.7,146 -149.5,258 -279.6,323 -70.2,31.6 -150,30.5 -220.6,60.6 -39.1,22 -78.2,49.9 -124.9,51.2 -164.5,10.8 -332.4,5.7 -492.7,50.2 -102.8,33.7 -211.9,37.5 -318.2,52.9 -69.5,8.7 -137.8,31.3 -208.6,24.9 -62.5,-4.5 -117.8,-36.4 -174.2,-60.5 z m 914.7,-2835 v 0 c 1.8,-10.5 3.8,-21 5.8,-31.6 25.9,-3.9 57,6.2 51.5,38.9 -19.6,1.8 -38.9,-0.6 -57.3,-7.3 z m -829.7,-599.1 c 39.3,-31.5 86.4,-60.1 138.5,-59 3.6,4.7 10.7,14.3 14.2,19 -28.1,63.8 -57.9,136.4 -125.1,167.9 -31.32,13.44 -85.03,13.43 -78.5,71.2 -9.03,-49.15 2.91,-172.88 50.9,-199.1 z m -393.7,-24.6 c 11.2,-41.6 37.5,-76.7 55.1,-115.6 36.9,-78.8 88.8,-148.8 132.1,-223.9 153.3,-250.2 310.1,-498.1 464.8,-747.4 72.3,-110.77 397.48,-674.97 424.1,-697.8 11.1,158.1 38.5,314.5 74.8,468.7 7.7,35.5 19,80.4 -12.4,108 -42.8,41 -107,37.2 -162,39.7 -21.8,-1.3 -45.4,18.6 -31.5,40.9 33.7,77.2 75.8,150.6 115.1,225.1 25.5,43.8 54.4,99.1 110.3,106.2 62.6,3.1 127.4,-14.5 178.9,-50.6 39.3,-25.8 87.4,-32.8 132.9,-40.8 19.5,3.4 47,18.5 37.8,42.6 -19.7,29.6 -46,54.3 -72.1,78.1 -67.2,54.5 -158,54 -236.9,80.6 23.7,21.7 56.2,27.4 83.5,43.2 -108.7,44.2 -189.4,135.7 -297.7,180.4 -18.4,8 -32.5,22.4 -47.9,34.7 -76,63.1 -166.7,105.2 -257.9,141.5 -185.7,70.7 -361.9,169.5 -513.4,298.6 -58.6,50.1 -103.6,113.3 -149,174.9 -33.95,-55.08 -46.18,-124.39 -28.6,-187.1 z m 1279.9,-1416.5 v 0 c -18.7,-21 -39.2,-43.9 -41.2,-73.5 -3.3,-41.5 -1.4,-85.6 -24.1,-122.5 30.8,2.5 72.6,-5.1 88.4,29.6 16,55.7 -2.1,114.6 -23.1,166.4 z"
         style="fill:none;stroke:#231f20;stroke-width:2.16;stroke-linecap:butt;stroke-linejoin:miter;stroke-miterlimit:22.9256;stroke-dasharray:none;stroke-opacity:1"
         id="path14" /><path
         d="m 2375.12,5927.81 c 18.9,4.5 38.4,7.3 56.6,-1.5 9.4,-27.4 14.5,-56.2 9.2,-85 -5.7,-2.2 -14.6,-20.35 -20.4,-22.55 -10.5,3.2 -23.4,20.15 -33.9,23.25 -14.5,26.4 -14.9,56.6 -11.5,85.8"
         style="fill:#231f20;fill-opacity:1;fill-rule:nonzero;stroke:none"
         id="path16" /><path
         d="m 2375.12,5927.81 c 18.9,4.5 38.4,7.3 56.6,-1.5 9.4,-27.4 14.5,-56.2 9.2,-85 -5.7,-2.2 -14.6,-20.35 -20.4,-22.55 -10.5,3.2 -23.4,20.15 -33.9,23.25 -14.5,26.4 -14.9,56.6 -11.5,85.8 z"
         style="fill:none;stroke:#231f20;stroke-width:2.16;stroke-linecap:butt;stroke-linejoin:miter;stroke-miterlimit:22.9256;stroke-dasharray:none;stroke-opacity:1"
         id="path18" /><path
         d="m 2689.82,5710.71 c 55,9.1 80.2,65.9 128.5,87 40.2,-10.5 26.2,-56.3 40.6,-85.5 10.1,-33.6 49.7,-41.9 67.9,-69 16.5,-76.2 -26.1,-158.4 -94.7,-193.6 -33.4,-19 -72.2,-25.4 -105.3,-45 -29.7,-16.7 -41.3,-56.7 -77,-63.8 -21.2,-1.2 -44.9,-3.7 -63.1,9.6 -81.4,53.3 -186.7,62.6 -258.2,132.5 -43,34.4 -51.9,100 -28.5,148 16.6,33.9 60.7,32 86,55.6 21.6,27 17.4,69.4 47.4,90.3 95.3,25.5 161.8,-90 256.4,-66.1"
         style="fill:#231f20;fill-opacity:1;fill-rule:nonzero;stroke:none"
         id="path20" /><path
         d="m 2689.82,5710.71 c 55,9.1 80.2,65.9 128.5,87 40.2,-10.5 26.2,-56.3 40.6,-85.5 10.1,-33.6 49.7,-41.9 67.9,-69 16.5,-76.2 -26.1,-158.4 -94.7,-193.6 -33.4,-19 -72.2,-25.4 -105.3,-45 -29.7,-16.7 -41.3,-56.7 -77,-63.8 -21.2,-1.2 -44.9,-3.7 -63.1,9.6 -81.4,53.3 -186.7,62.6 -258.2,132.5 -43,34.4 -51.9,100 -28.5,148 16.6,33.9 60.7,32 86,55.6 21.6,27 17.4,69.4 47.4,90.3 95.3,25.5 161.8,-90 256.4,-66.1 z"
         style="fill:none;stroke:#231f20;stroke-width:2.16;stroke-linecap:butt;stroke-linejoin:miter;stroke-miterlimit:22.9256;stroke-dasharray:none;stroke-opacity:1"
         id="path22" /><path
         d="m 2847.72,5214.41 c 91.7,12.6 193.9,52.5 280.4,-0.1 35.7,-31 89.3,-24.9 123.3,-58.5 34.5,-31.5 42.4,-80.5 50.8,-124.2 5.4,-34.8 19.1,-71.6 2.7,-105.6 -41.9,-10.8 -80.6,11.4 -118.3,26.3 -43.2,16.8 -67.2,58.7 -100.5,88.2 l -2.9,2.3 c -77.8,52.5 -174.4,66.9 -266.3,57.3 -146.5,-14.7 -296.8,-7.6 -439,-51.6 -47.6,-11.2 -90,-36.9 -127,-68.3 -56.5,-48.5 -115.2,-95.7 -182.1,-129.2 -30.6,-8.7 -54.7,20.9 -70.1,43.2 -31.9,57.2 -45.5,124.6 -42.4,189.7 16,22 48.4,23.6 69.3,40.5 56.2,40.6 106.9,103.9 182.8,101.8 66,8.1 123.2,-47.5 189.4,-28.6 55.2,17.8 113.7,28.5 171.8,20.2 41,-3.4 78.2,-30.8 120.5,-22.5 21.2,3.3 38.6,18.9 59.8,21.6 32.6,-3.1 65.2,-10.7 97.8,-2.5"
         style="fill:#231f20;fill-opacity:1;fill-rule:nonzero;stroke:none"
         id="path24" /><path
         d="m 2847.72,5214.41 c 91.7,12.6 193.9,52.5 280.4,-0.1 35.7,-31 89.3,-24.9 123.3,-58.5 34.5,-31.5 42.4,-80.5 50.8,-124.2 5.4,-34.8 19.1,-71.6 2.7,-105.6 -41.9,-10.8 -80.6,11.4 -118.3,26.3 -43.2,16.8 -67.2,58.7 -100.5,88.2 l -2.9,2.3 c -77.8,52.5 -174.4,66.9 -266.3,57.3 -146.5,-14.7 -296.8,-7.6 -439,-51.6 -47.6,-11.2 -90,-36.9 -127,-68.3 -56.5,-48.5 -115.2,-95.7 -182.1,-129.2 -30.6,-8.7 -54.7,20.9 -70.1,43.2 -31.9,57.2 -45.5,124.6 -42.4,189.7 16,22 48.4,23.6 69.3,40.5 56.2,40.6 106.9,103.9 182.8,101.8 66,8.1 123.2,-47.5 189.4,-28.6 55.2,17.8 113.7,28.5 171.8,20.2 41,-3.4 78.2,-30.8 120.5,-22.5 21.2,3.3 38.6,18.9 59.8,21.6 32.6,-3.1 65.2,-10.7 97.8,-2.5 z"
         style="fill:none;stroke:#231f20;stroke-width:2.16;stroke-linecap:butt;stroke-linejoin:miter;stroke-miterlimit:22.9256;stroke-dasharray:none;stroke-opacity:1"
         id="path26" /><path
         d="m 2437.82,4941.91 c 98,1.2 191.7,42.2 290.3,34.8 64.4,-5.4 127.6,-20.1 190.4,-34.8 16,-1 25,-14.3 34,-25.7 -3,-21.8 1.4,-46.3 -11.1,-65.8 -8.4,-15.8 -28.2,-13.6 -43.2,-14.7 -50.9,1.1 -101.1,9.9 -151.7,14.7 -114.4,20.9 -229.3,-38.9 -342.8,-4.3 -25.7,10 -59.2,12.4 -75.8,36.9 -5.6,22 0.3,57.3 28.7,59.2 27,2.5 54.1,-1.9 81.2,-0.3"
         style="fill:#231f20;fill-opacity:1;fill-rule:nonzero;stroke:none"
         id="path28" /><path
         d="m 2437.82,4941.91 c 98,1.2 191.7,42.2 290.3,34.8 64.4,-5.4 127.6,-20.1 190.4,-34.8 16,-1 25,-14.3 34,-25.7 -3,-21.8 1.4,-46.3 -11.1,-65.8 -8.4,-15.8 -28.2,-13.6 -43.2,-14.7 -50.9,1.1 -101.1,9.9 -151.7,14.7 -114.4,20.9 -229.3,-38.9 -342.8,-4.3 -25.7,10 -59.2,12.4 -75.8,36.9 -5.6,22 0.3,57.3 28.7,59.2 27,2.5 54.1,-1.9 81.2,-0.3 z"
         style="fill:none;stroke:#231f20;stroke-width:2.16;stroke-linecap:butt;stroke-linejoin:miter;stroke-miterlimit:22.9256;stroke-dasharray:none;stroke-opacity:1"
         id="path30" /><path
         d="m 3513.82,3802.11 c 18.6,-22.7 38.4,-44.5 54.6,-69.2 43,-64.1 102.9,-122.9 179.6,-142.9 128.5,-35.1 253,-83 377.5,-130 114.6,-46.6 233.6,-81.6 346.7,-131.8 180.9,-74 355.3,-162.9 536.1,-237 v -988.3 h -1311.6 c -9.2,201 -34.2,400.8 -53.7,600.9 -13.2,147.1 -24,294.4 -43.5,440.8 -14.8,113.3 -40.4,224.8 -58.9,337.4 -17.5,105.9 -20,213.3 -26.8,320.1"
         style="fill:#231f20;fill-opacity:1;fill-rule:nonzero;stroke:none"
         id="path32" /><path
         d="m 3513.82,3802.11 c 18.6,-22.7 38.4,-44.5 54.6,-69.2 43,-64.1 102.9,-122.9 179.6,-142.9 128.5,-35.1 253,-83 377.5,-130 114.6,-46.6 233.6,-81.6 346.7,-131.8 180.9,-74 355.3,-162.9 536.1,-237 v -988.3 h -1311.6 c -9.2,201 -34.2,400.8 -53.7,600.9 -13.2,147.1 -24,294.4 -43.5,440.8 -14.8,113.3 -40.4,224.8 -58.9,337.4 -17.5,105.9 -20,213.3 -26.8,320.1 z"
         style="fill:none;stroke:#231f20;stroke-width:2.16;stroke-linecap:butt;stroke-linejoin:miter;stroke-miterlimit:22.9256;stroke-dasharray:none;stroke-opacity:1"
         id="path34" /><path
         d="m 16.457,1892.37 h 221.941 c 70.125,0 123.262,-5.42 159.407,-16.45 36.144,-10.85 65.242,-33.08 87.476,-66.33 22.227,-33.43 33.254,-87.11 33.254,-161.21 0,-50.07 -7.769,-84.95 -23.496,-104.65 -15.723,-19.88 -46.809,-34.88 -93.078,-45.54 51.691,-11.75 86.754,-31.09 105.187,-58.02 18.434,-27.11 27.649,-68.5 27.649,-124.53 v -79.51 c 0,-58.02 -6.684,-100.86 -19.879,-128.87 -13.191,-27.83 -34.156,-46.99 -63.074,-57.3 -28.918,-10.3 -88.199,-15.35 -177.84,-15.35 H 16.457 Z m 223.387,-146.4 v -190.85 c 9.398,0.36 16.625,0.54 21.867,0.54 21.328,0 35.062,5.42 40.848,16.09 5.964,10.84 8.855,41.74 8.855,92.53 0,26.93 -2.348,45.72 -7.23,56.57 -4.879,10.66 -11.207,17.53 -18.977,20.42 -7.769,2.71 -22.953,4.34 -45.363,4.7 z m 0,-324.24 V 1181 c 30.722,1.08 50.426,5.96 58.918,14.82 8.496,8.86 12.652,30.73 12.652,65.42 v 80.25 c 0,36.87 -3.797,59.1 -11.387,67.05 -7.589,7.77 -27.652,12.11 -60.183,13.19 z m 883.966,-32.16 c 0,-86.21 -1.99,-147.12 -6.15,-182.91 -3.97,-35.96 -16.62,-68.68 -37.95,-98.31 -21.33,-29.65 -50.25,-52.42 -86.573,-68.32 -36.324,-15.91 -78.617,-23.86 -126.875,-23.86 -45.903,0 -86.934,7.59 -123.442,22.59 -36.504,15 -65.965,37.41 -88.015,67.42 -22.231,30 -35.422,62.71 -39.762,97.95 -4.156,35.42 -6.324,97.24 -6.324,185.44 v 146.75 c 0,86.21 1.988,147.12 6.144,182.9 3.977,35.97 16.629,68.68 37.953,98.32 21.329,29.64 50.243,52.42 86.575,68.32 36.324,15.9 78.617,23.85 126.871,23.85 45.906,0 86.933,-7.58 123.445,-22.58 36.503,-15 65.963,-37.42 88.013,-67.42 22.23,-30 35.42,-62.71 39.76,-97.96 4.16,-35.42 6.33,-97.23 6.33,-185.43 z m -223.388,281.76 c 0,39.76 -2.168,65.24 -6.508,76.45 -4.336,11.02 -13.191,16.63 -26.566,16.63 -11.387,0 -20.059,-4.52 -26.207,-13.56 -5.965,-8.86 -9.036,-35.42 -9.036,-79.52 V 1271 c 0,-49.7 1.989,-80.42 5.965,-91.99 3.977,-11.74 13.192,-17.53 27.653,-17.53 14.816,0 24.398,6.69 28.554,20.06 4.157,13.37 6.145,45.37 6.145,95.79 z m 530.628,221.04 v -686.43 h 134.47 v -171.33 h -357.85 v 857.76 z m 653.36,-260.26 h -207.12 v 63.44 c 0,29.64 -2.72,48.61 -7.96,56.75 -5.24,8.13 -13.91,12.11 -26.2,12.11 -13.38,0 -23.5,-5.43 -30.37,-16.45 -6.86,-10.84 -10.3,-27.29 -10.3,-49.52 0,-28.56 3.98,-50.06 11.75,-64.52 7.59,-14.28 28.56,-31.81 63.08,-52.42 98.85,-59.09 161.21,-107.71 186.87,-145.48 25.85,-37.78 38.68,-98.68 38.68,-182.55 0,-61.09 -7.23,-106.09 -21.51,-135.18 -14.28,-28.92 -41.74,-53.14 -82.78,-72.66 -40.84,-19.7 -88.37,-29.46 -142.77,-29.46 -59.64,0 -110.43,11.38 -152.72,33.98 -42.11,22.59 -69.58,51.33 -82.78,86.21 -13.01,35.06 -19.51,84.76 -19.51,148.92 v 56.21 h 207.11 v -104.28 c 0,-32.17 2.89,-52.78 8.68,-62 5.78,-9.21 16.08,-13.73 30.9,-13.73 14.83,0 25.85,5.79 33.08,17.53 7.23,11.57 10.84,28.92 10.84,51.69 0,50.43 -6.86,83.5 -20.6,98.86 -14.28,15.55 -48.98,41.57 -104.28,78.08 -55.31,36.69 -91.82,63.43 -109.89,80.06 -17.89,16.63 -32.9,39.59 -44.64,68.86 -11.75,29.28 -17.71,66.69 -17.71,112.24 0,65.61 8.31,113.68 25.12,144.04 16.81,30.36 43.74,54.04 81.15,71.21 37.41,17.17 82.41,25.66 135.37,25.66 57.83,0 106.99,-9.39 147.84,-28.01 40.66,-18.79 67.59,-42.29 80.78,-70.85 13.2,-28.37 19.89,-76.63 19.89,-144.76 z m 597.68,-242.54 c 0,-86.21 -1.99,-147.12 -6.14,-182.91 -3.98,-35.96 -16.63,-68.68 -37.96,-98.31 -21.33,-29.65 -50.24,-52.42 -86.57,-68.32 -36.33,-15.91 -78.62,-23.86 -126.88,-23.86 -45.9,0 -86.93,7.59 -123.44,22.59 -36.5,15 -65.96,37.41 -88.01,67.42 -22.23,30 -35.43,62.71 -39.76,97.95 -4.16,35.42 -6.33,97.24 -6.33,185.44 v 146.75 c 0,86.21 1.99,147.12 6.14,182.9 3.98,35.97 16.63,68.68 37.96,98.32 21.33,29.64 50.24,52.42 86.57,68.32 36.33,15.9 78.62,23.85 126.87,23.85 45.91,0 86.94,-7.58 123.45,-22.58 36.51,-15 65.96,-37.42 88.01,-67.42 22.23,-30 35.43,-62.71 39.77,-97.96 4.15,-35.42 6.32,-97.23 6.32,-185.43 z m -223.39,281.76 c 0,39.76 -2.16,65.24 -6.5,76.45 -4.34,11.02 -13.2,16.63 -26.57,16.63 -11.39,0 -20.06,-4.52 -26.21,-13.56 -5.96,-8.86 -9.03,-35.42 -9.03,-79.52 V 1271 c 0,-49.7 1.99,-80.42 5.96,-91.99 3.98,-11.74 13.19,-17.53 27.65,-17.53 14.82,0 24.4,6.69 28.56,20.06 4.15,13.37 6.14,45.37 6.14,95.79 z m 804.99,221.04 V 1034.61 H 3068.5 l -116.03,390.02 v -390.02 h -186.52 v 857.76 h 186.52 l 124.7,-386.23 v 386.23 z m 474.24,0 127.6,-857.76 h -227.9 l -12.11,153.98 h -80.43 l -12.11,-153.98 h -230.79 l 113.13,857.76 z m -118.38,-551.96 c -10.66,97.23 -21.87,217.6 -33.79,361.28 -22.05,-164.83 -35.97,-285.19 -41.93,-361.28 z m 284.3,551.96 h 157.78 c 105.18,0 176.39,-3.98 213.62,-12.11 37.23,-8.13 67.6,-28.92 91.09,-62.36 23.5,-33.25 35.25,-86.57 35.25,-159.58 0,-66.69 -8.32,-111.52 -24.95,-134.47 -16.44,-22.96 -49.15,-36.69 -97.95,-41.21 44.1,-11.02 73.92,-25.66 89.1,-44.09 15.18,-18.26 24.58,-35.25 28.19,-50.61 3.8,-15.36 5.61,-57.65 5.61,-126.87 v -226.46 h -207.12 v 285.37 c 0,45.91 -3.62,74.29 -10.85,85.31 -7.05,11.02 -25.84,16.44 -56.39,16.44 v -387.12 h -223.38 z m 223.38,-146.4 v -190.85 c 24.95,0 42.3,3.43 52.24,10.3 9.94,6.87 15,29.28 15,67.05 v 47.17 c 0,27.29 -4.88,45.18 -14.46,53.68 -9.58,8.5 -27.3,12.65 -52.78,12.65 z m 869.15,-356.4 c 0,-86.21 -1.99,-147.12 -6.15,-182.91 -3.97,-35.96 -16.62,-68.68 -37.95,-98.31 -21.33,-29.65 -50.24,-52.42 -86.57,-68.32 -36.33,-15.91 -78.62,-23.86 -126.88,-23.86 -45.9,0 -86.93,7.59 -123.44,22.59 -36.5,15 -65.96,37.41 -88.01,67.42 -22.24,30 -35.43,62.71 -39.76,97.95 -4.16,35.42 -6.33,97.24 -6.33,185.44 v 146.75 c 0,86.21 1.99,147.12 6.14,182.9 3.98,35.97 16.63,68.68 37.96,98.32 21.32,29.64 50.24,52.42 86.57,68.32 36.33,15.9 78.62,23.85 126.87,23.85 45.91,0 86.94,-7.58 123.45,-22.58 36.51,-15 65.96,-37.42 88.01,-67.42 22.23,-30 35.43,-62.71 39.76,-97.96 4.16,-35.42 6.33,-97.23 6.33,-185.43 z m -223.39,281.76 c 0,39.76 -2.17,65.24 -6.51,76.45 -4.33,11.02 -13.19,16.63 -26.56,16.63 -11.39,0 -20.06,-4.52 -26.21,-13.56 -5.96,-8.86 -9.03,-35.42 -9.03,-79.52 V 1271 c 0,-49.7 1.98,-80.42 5.96,-91.99 3.98,-11.74 13.19,-17.53 27.65,-17.53 14.82,0 24.4,6.69 28.56,20.06 4.15,13.37 6.14,45.37 6.14,95.79 z M 16.457,887.051 h 224.652 c 60.727,0 107.356,-4.699 140.071,-14.278 32.527,-9.582 57.109,-23.316 73.554,-41.207 16.446,-18.074 27.473,-39.945 33.438,-65.425 5.781,-25.668 8.676,-65.246 8.676,-118.922 v -74.645 c 0,-54.582 -5.602,-94.523 -16.989,-119.465 -11.207,-25.121 -31.992,-44.461 -61.992,-57.836 -30.183,-13.375 -69.582,-20.058 -118.203,-20.058 h -59.82 V 29.2891 H 16.457 Z M 239.844,740.656 V 522.148 c 6.324,-0.363 11.75,-0.539 16.265,-0.539 20.422,0 34.524,5.059 42.473,15.18 7.773,9.941 11.746,30.906 11.746,62.715 v 70.664 c 0,29.281 -4.519,48.441 -13.734,57.297 -9.035,8.855 -28.012,13.191 -56.75,13.191 z m 323.652,146.395 h 157.781 c 105.184,0 176.395,-3.977 213.625,-12.11 37.231,-8.132 67.598,-28.918 91.088,-62.355 23.5,-33.254 35.24,-86.57 35.24,-159.586 0,-66.691 -8.31,-111.512 -24.94,-134.465 -16.44,-22.953 -49.157,-36.687 -97.954,-41.207 44.098,-11.027 73.914,-25.664 89.104,-44.098 15.18,-18.257 24.58,-35.242 28.19,-50.609 3.8,-15.359 5.6,-57.652 5.6,-126.871 V 29.2891 H 854.117 V 314.668 c 0,45.906 -3.617,74.281 -10.847,85.305 -7.047,11.023 -25.844,16.449 -56.387,16.449 V 29.2891 H 563.496 Z M 786.883,740.656 V 549.801 c 24.941,0 42.293,3.433 52.23,10.301 9.942,6.871 15.004,29.281 15.004,67.054 v 47.172 c 0,27.289 -4.883,45.18 -14.461,53.676 -9.578,8.496 -27.293,12.652 -52.773,12.652 z m 363.237,146.395 h 371.94 V 715.715 H 1373.5 V 551.969 h 138.8 V 389.309 H 1373.5 V 200.625 h 163.75 V 29.2891 h -387.13 z m 924.95,-260.258 h -207.12 v 63.437 c 0,29.641 -2.72,48.622 -7.96,56.754 -5.24,8.129 -13.91,12.106 -26.2,12.106 -13.38,0 -23.5,-5.422 -30.37,-16.449 -6.87,-10.84 -10.3,-27.289 -10.3,-49.516 0,-28.559 3.98,-50.066 11.75,-64.523 7.59,-14.278 28.55,-31.809 63.08,-52.414 98.85,-59.098 161.21,-107.715 186.87,-145.489 25.85,-37.777 38.68,-98.679 38.68,-182.539 0,-61.09 -7.23,-106.094 -21.51,-135.191 -14.28,-28.9182 -41.74,-53.137 -82.78,-72.6565 -40.84,-19.6953 -88.37,-29.457 -142.77,-29.457 -59.64,0 -110.43,11.3828 -152.72,33.9765 -42.11,22.5938 -69.58,51.3282 -82.78,86.211 -13.01,35.062 -19.51,84.762 -19.51,148.922 v 56.211 h 207.11 V 231.891 c 0,-32.172 2.89,-52.774 8.68,-61.993 5.78,-9.214 16.08,-13.734 30.91,-13.734 14.81,0 25.84,5.785 33.07,17.531 7.23,11.567 10.84,28.918 10.84,51.692 0,50.422 -6.86,83.5 -20.6,98.859 -14.28,15.543 -48.98,41.57 -104.28,78.078 -55.31,36.688 -91.82,63.438 -109.89,80.063 -17.89,16.629 -32.89,39.582 -44.64,68.859 -11.75,29.281 -17.71,66.692 -17.71,112.234 0,65.61 8.31,113.684 25.12,144.047 16.81,30.364 43.73,54.039 81.15,71.211 37.41,17.168 82.41,25.66 135.37,25.66 57.83,0 106.99,-9.398 147.83,-28.011 40.67,-18.797 67.6,-42.293 80.79,-70.848 13.2,-28.375 19.89,-76.629 19.89,-144.766 z m 315.15,260.258 V 29.2891 H 2166.84 V 887.051 Z m 91.78,0 h 166.81 c 107.54,0 180.37,-4.883 218.33,-14.824 37.95,-9.938 66.87,-26.204 86.57,-48.793 19.7,-22.594 32.17,-47.715 37.05,-75.368 4.88,-27.836 7.41,-82.234 7.41,-163.562 V 284.125 c 0,-76.992 -3.62,-128.504 -10.85,-154.348 -7.22,-26.023 -19.87,-46.4489 -37.77,-61.0895 -18.07,-14.6367 -40.3,-24.7578 -66.87,-30.7227 -26.39,-5.7851 -66.33,-8.6757 -119.64,-8.6757 H 2482 Z M 2705.38,740.656 V 175.684 c 31.63,0 51.15,6.507 58.38,19.339 7.41,13.012 11.03,48.075 11.03,105.368 v 333.632 c 0,38.86 -1.27,63.797 -3.62,74.825 -2.53,11.023 -7.96,18.976 -16.81,24.035 -8.67,5.242 -24.94,7.773 -48.98,7.773 z m 378.6,146.395 h 371.95 V 715.715 H 3307.36 V 551.969 h 138.81 V 389.309 H 3307.36 V 200.625 h 163.75 V 29.2891 h -387.13 z m 950.97,0 V 29.2891 H 3839.76 L 3723.73,419.313 V 29.2891 H 3537.21 V 887.051 h 186.52 L 3848.44,500.82 v 386.231 z m 541.08,0 V 715.715 H 4444.82 V 29.2891 H 4221.43 V 715.715 h -132.3 v 171.336 z m 53.63,0 h 371.95 V 715.715 H 4853.05 V 551.969 h 138.81 V 389.309 H 4853.05 V 200.625 H 5016.8 V 29.2891 H 4629.66 V 887.051"
         style="fill:#231f20;fill-opacity:1;fill-rule:nonzero;stroke:none"
         id="path36" /><path
         d="m 16.457,1892.37 h 221.941 c 70.125,0 123.262,-5.42 159.407,-16.45 36.144,-10.85 65.242,-33.08 87.476,-66.33 22.227,-33.43 33.254,-87.11 33.254,-161.21 0,-50.07 -7.769,-84.95 -23.496,-104.65 -15.723,-19.88 -46.809,-34.88 -93.078,-45.54 51.691,-11.75 86.754,-31.09 105.187,-58.02 18.434,-27.11 27.649,-68.5 27.649,-124.53 v -79.51 c 0,-58.02 -6.684,-100.86 -19.879,-128.87 -13.191,-27.83 -34.156,-46.99 -63.074,-57.3 -28.918,-10.3 -88.199,-15.35 -177.84,-15.35 H 16.457 Z m 223.387,-146.4 v -190.85 c 9.398,0.36 16.625,0.54 21.867,0.54 21.328,0 35.062,5.42 40.848,16.09 5.964,10.84 8.855,41.74 8.855,92.53 0,26.93 -2.348,45.72 -7.23,56.57 -4.879,10.66 -11.207,17.53 -18.977,20.42 -7.769,2.71 -22.953,4.34 -45.363,4.7 z m 0,-324.24 V 1181 c 30.722,1.08 50.426,5.96 58.918,14.82 8.496,8.86 12.652,30.73 12.652,65.42 v 80.25 c 0,36.87 -3.797,59.1 -11.387,67.05 -7.589,7.77 -27.652,12.11 -60.183,13.19 z m 883.966,-32.16 c 0,-86.21 -1.99,-147.12 -6.15,-182.91 -3.97,-35.96 -16.62,-68.68 -37.95,-98.31 -21.33,-29.65 -50.25,-52.42 -86.573,-68.32 -36.324,-15.91 -78.617,-23.86 -126.875,-23.86 -45.903,0 -86.934,7.59 -123.442,22.59 -36.504,15 -65.965,37.41 -88.015,67.42 -22.231,30 -35.422,62.71 -39.762,97.95 -4.156,35.42 -6.324,97.24 -6.324,185.44 v 146.75 c 0,86.21 1.988,147.12 6.144,182.9 3.977,35.97 16.629,68.68 37.953,98.32 21.329,29.64 50.243,52.42 86.575,68.32 36.324,15.9 78.617,23.85 126.871,23.85 45.906,0 86.933,-7.58 123.445,-22.58 36.503,-15 65.963,-37.42 88.013,-67.42 22.23,-30 35.42,-62.71 39.76,-97.96 4.16,-35.42 6.33,-97.23 6.33,-185.43 z m -223.388,281.76 c 0,39.76 -2.168,65.24 -6.508,76.45 -4.336,11.02 -13.191,16.63 -26.566,16.63 -11.387,0 -20.059,-4.52 -26.207,-13.56 -5.965,-8.86 -9.036,-35.42 -9.036,-79.52 V 1271 c 0,-49.7 1.989,-80.42 5.965,-91.99 3.977,-11.74 13.192,-17.53 27.653,-17.53 14.816,0 24.398,6.69 28.554,20.06 4.157,13.37 6.145,45.37 6.145,95.79 z m 530.628,221.04 v -686.43 h 134.47 v -171.33 h -357.85 v 857.76 z m 653.36,-260.26 h -207.12 v 63.44 c 0,29.64 -2.72,48.61 -7.96,56.75 -5.24,8.13 -13.91,12.11 -26.2,12.11 -13.38,0 -23.5,-5.43 -30.37,-16.45 -6.86,-10.84 -10.3,-27.29 -10.3,-49.52 0,-28.56 3.98,-50.06 11.75,-64.52 7.59,-14.28 28.56,-31.81 63.08,-52.42 98.85,-59.09 161.21,-107.71 186.87,-145.48 25.85,-37.78 38.68,-98.68 38.68,-182.55 0,-61.09 -7.23,-106.09 -21.51,-135.18 -14.28,-28.92 -41.74,-53.14 -82.78,-72.66 -40.84,-19.7 -88.37,-29.46 -142.77,-29.46 -59.64,0 -110.43,11.38 -152.72,33.98 -42.11,22.59 -69.58,51.33 -82.78,86.21 -13.01,35.06 -19.51,84.76 -19.51,148.92 v 56.21 h 207.11 v -104.28 c 0,-32.17 2.89,-52.78 8.68,-62 5.78,-9.21 16.08,-13.73 30.9,-13.73 14.83,0 25.85,5.79 33.08,17.53 7.23,11.57 10.84,28.92 10.84,51.69 0,50.43 -6.86,83.5 -20.6,98.86 -14.28,15.55 -48.98,41.57 -104.28,78.08 -55.31,36.69 -91.82,63.43 -109.89,80.06 -17.89,16.63 -32.9,39.59 -44.64,68.86 -11.75,29.28 -17.71,66.69 -17.71,112.24 0,65.61 8.31,113.68 25.12,144.04 16.81,30.36 43.74,54.04 81.15,71.21 37.41,17.17 82.41,25.66 135.37,25.66 57.83,0 106.99,-9.39 147.84,-28.01 40.66,-18.79 67.59,-42.29 80.78,-70.85 13.2,-28.37 19.89,-76.63 19.89,-144.76 z m 597.68,-242.54 c 0,-86.21 -1.99,-147.12 -6.14,-182.91 -3.98,-35.96 -16.63,-68.68 -37.96,-98.31 -21.33,-29.65 -50.24,-52.42 -86.57,-68.32 -36.33,-15.91 -78.62,-23.86 -126.88,-23.86 -45.9,0 -86.93,7.59 -123.44,22.59 -36.5,15 -65.96,37.41 -88.01,67.42 -22.23,30 -35.43,62.71 -39.76,97.95 -4.16,35.42 -6.33,97.24 -6.33,185.44 v 146.75 c 0,86.21 1.99,147.12 6.14,182.9 3.98,35.97 16.63,68.68 37.96,98.32 21.33,29.64 50.24,52.42 86.57,68.32 36.33,15.9 78.62,23.85 126.87,23.85 45.91,0 86.94,-7.58 123.45,-22.58 36.51,-15 65.96,-37.42 88.01,-67.42 22.23,-30 35.43,-62.71 39.77,-97.96 4.15,-35.42 6.32,-97.23 6.32,-185.43 z m -223.39,281.76 c 0,39.76 -2.16,65.24 -6.5,76.45 -4.34,11.02 -13.2,16.63 -26.57,16.63 -11.39,0 -20.06,-4.52 -26.21,-13.56 -5.96,-8.86 -9.03,-35.42 -9.03,-79.52 V 1271 c 0,-49.7 1.99,-80.42 5.96,-91.99 3.98,-11.74 13.19,-17.53 27.65,-17.53 14.82,0 24.4,6.69 28.56,20.06 4.15,13.37 6.14,45.37 6.14,95.79 z m 804.99,221.04 V 1034.61 H 3068.5 l -116.03,390.02 v -390.02 h -186.52 v 857.76 h 186.52 l 124.7,-386.23 v 386.23 z m 474.24,0 127.6,-857.76 h -227.9 l -12.11,153.98 h -80.43 l -12.11,-153.98 h -230.79 l 113.13,857.76 z m -118.38,-551.96 c -10.66,97.23 -21.87,217.6 -33.79,361.28 -22.05,-164.83 -35.97,-285.19 -41.93,-361.28 z m 284.3,551.96 h 157.78 c 105.18,0 176.39,-3.98 213.62,-12.11 37.23,-8.13 67.6,-28.92 91.09,-62.36 23.5,-33.25 35.25,-86.57 35.25,-159.58 0,-66.69 -8.32,-111.52 -24.95,-134.47 -16.44,-22.96 -49.15,-36.69 -97.95,-41.21 44.1,-11.02 73.92,-25.66 89.1,-44.09 15.18,-18.26 24.58,-35.25 28.19,-50.61 3.8,-15.36 5.61,-57.65 5.61,-126.87 v -226.46 h -207.12 v 285.37 c 0,45.91 -3.62,74.29 -10.85,85.31 -7.05,11.02 -25.84,16.44 -56.39,16.44 v -387.12 h -223.38 z m 223.38,-146.4 v -190.85 c 24.95,0 42.3,3.43 52.24,10.3 9.94,6.87 15,29.28 15,67.05 v 47.17 c 0,27.29 -4.88,45.18 -14.46,53.68 -9.58,8.5 -27.3,12.65 -52.78,12.65 z m 869.15,-356.4 c 0,-86.21 -1.99,-147.12 -6.15,-182.91 -3.97,-35.96 -16.62,-68.68 -37.95,-98.31 -21.33,-29.65 -50.24,-52.42 -86.57,-68.32 -36.33,-15.91 -78.62,-23.86 -126.88,-23.86 -45.9,0 -86.93,7.59 -123.44,22.59 -36.5,15 -65.96,37.41 -88.01,67.42 -22.24,30 -35.43,62.71 -39.76,97.95 -4.16,35.42 -6.33,97.24 -6.33,185.44 v 146.75 c 0,86.21 1.99,147.12 6.14,182.9 3.98,35.97 16.63,68.68 37.96,98.32 21.32,29.64 50.24,52.42 86.57,68.32 36.33,15.9 78.62,23.85 126.87,23.85 45.91,0 86.94,-7.58 123.45,-22.58 36.51,-15 65.96,-37.42 88.01,-67.42 22.23,-30 35.43,-62.71 39.76,-97.96 4.16,-35.42 6.33,-97.23 6.33,-185.43 z m -223.39,281.76 c 0,39.76 -2.17,65.24 -6.51,76.45 -4.33,11.02 -13.19,16.63 -26.56,16.63 -11.39,0 -20.06,-4.52 -26.21,-13.56 -5.96,-8.86 -9.03,-35.42 -9.03,-79.52 V 1271 c 0,-49.7 1.98,-80.42 5.96,-91.99 3.98,-11.74 13.19,-17.53 27.65,-17.53 14.82,0 24.4,6.69 28.56,20.06 4.15,13.37 6.14,45.37 6.14,95.79 z M 16.457,887.051 h 224.652 c 60.727,0 107.356,-4.699 140.071,-14.278 32.527,-9.582 57.109,-23.316 73.554,-41.207 16.446,-18.074 27.473,-39.945 33.438,-65.425 5.781,-25.668 8.676,-65.246 8.676,-118.922 v -74.645 c 0,-54.582 -5.602,-94.523 -16.989,-119.465 -11.207,-25.121 -31.992,-44.461 -61.992,-57.836 -30.183,-13.375 -69.582,-20.058 -118.203,-20.058 h -59.82 V 29.2891 H 16.457 Z M 239.844,740.656 V 522.148 c 6.324,-0.363 11.75,-0.539 16.265,-0.539 20.422,0 34.524,5.059 42.473,15.18 7.773,9.941 11.746,30.906 11.746,62.715 v 70.664 c 0,29.281 -4.519,48.441 -13.734,57.297 -9.035,8.855 -28.012,13.191 -56.75,13.191 z m 323.652,146.395 h 157.781 c 105.184,0 176.395,-3.977 213.625,-12.11 37.231,-8.132 67.598,-28.918 91.088,-62.355 23.5,-33.254 35.24,-86.57 35.24,-159.586 0,-66.691 -8.31,-111.512 -24.94,-134.465 -16.44,-22.953 -49.157,-36.687 -97.954,-41.207 44.098,-11.027 73.914,-25.664 89.104,-44.098 15.18,-18.257 24.58,-35.242 28.19,-50.609 3.8,-15.359 5.6,-57.652 5.6,-126.871 V 29.2891 H 854.117 V 314.668 c 0,45.906 -3.617,74.281 -10.847,85.305 -7.047,11.023 -25.844,16.449 -56.387,16.449 V 29.2891 H 563.496 Z M 786.883,740.656 V 549.801 c 24.941,0 42.293,3.433 52.23,10.301 9.942,6.871 15.004,29.281 15.004,67.054 v 47.172 c 0,27.289 -4.883,45.18 -14.461,53.676 -9.578,8.496 -27.293,12.652 -52.773,12.652 z m 363.237,146.395 h 371.94 V 715.715 H 1373.5 V 551.969 h 138.8 V 389.309 H 1373.5 V 200.625 h 163.75 V 29.2891 h -387.13 z m 924.95,-260.258 h -207.12 v 63.437 c 0,29.641 -2.72,48.622 -7.96,56.754 -5.24,8.129 -13.91,12.106 -26.2,12.106 -13.38,0 -23.5,-5.422 -30.37,-16.449 -6.87,-10.84 -10.3,-27.289 -10.3,-49.516 0,-28.559 3.98,-50.066 11.75,-64.523 7.59,-14.278 28.55,-31.809 63.08,-52.414 98.85,-59.098 161.21,-107.715 186.87,-145.489 25.85,-37.777 38.68,-98.679 38.68,-182.539 0,-61.09 -7.23,-106.094 -21.51,-135.191 -14.28,-28.9182 -41.74,-53.137 -82.78,-72.6565 -40.84,-19.6953 -88.37,-29.457 -142.77,-29.457 -59.64,0 -110.43,11.3828 -152.72,33.9765 -42.11,22.5938 -69.58,51.3282 -82.78,86.211 -13.01,35.062 -19.51,84.762 -19.51,148.922 v 56.211 h 207.11 V 231.891 c 0,-32.172 2.89,-52.774 8.68,-61.993 5.78,-9.214 16.08,-13.734 30.91,-13.734 14.81,0 25.84,5.785 33.07,17.531 7.23,11.567 10.84,28.918 10.84,51.692 0,50.422 -6.86,83.5 -20.6,98.859 -14.28,15.543 -48.98,41.57 -104.28,78.078 -55.31,36.688 -91.82,63.438 -109.89,80.063 -17.89,16.629 -32.89,39.582 -44.64,68.859 -11.75,29.281 -17.71,66.692 -17.71,112.234 0,65.61 8.31,113.684 25.12,144.047 16.81,30.364 43.73,54.039 81.15,71.211 37.41,17.168 82.41,25.66 135.37,25.66 57.83,0 106.99,-9.398 147.83,-28.011 40.67,-18.797 67.6,-42.293 80.79,-70.848 13.2,-28.375 19.89,-76.629 19.89,-144.766 z m 315.15,260.258 V 29.2891 H 2166.84 V 887.051 Z m 91.78,0 h 166.81 c 107.54,0 180.37,-4.883 218.33,-14.824 37.95,-9.938 66.87,-26.204 86.57,-48.793 19.7,-22.594 32.17,-47.715 37.05,-75.368 4.88,-27.836 7.41,-82.234 7.41,-163.562 V 284.125 c 0,-76.992 -3.62,-128.504 -10.85,-154.348 -7.22,-26.023 -19.87,-46.4489 -37.77,-61.0895 -18.07,-14.6367 -40.3,-24.7578 -66.87,-30.7227 -26.39,-5.7851 -66.33,-8.6757 -119.64,-8.6757 H 2482 Z M 2705.38,740.656 V 175.684 c 31.63,0 51.15,6.507 58.38,19.339 7.41,13.012 11.03,48.075 11.03,105.368 v 333.632 c 0,38.86 -1.27,63.797 -3.62,74.825 -2.53,11.023 -7.96,18.976 -16.81,24.035 -8.67,5.242 -24.94,7.773 -48.98,7.773 z m 378.6,146.395 h 371.95 V 715.715 H 3307.36 V 551.969 h 138.81 V 389.309 H 3307.36 V 200.625 h 163.75 V 29.2891 h -387.13 z m 950.97,0 V 29.2891 H 3839.76 L 3723.73,419.313 V 29.2891 H 3537.21 V 887.051 h 186.52 L 3848.44,500.82 v 386.231 z m 541.08,0 V 715.715 H 4444.82 V 29.2891 H 4221.43 V 715.715 h -132.3 v 171.336 z m 53.63,0 h 371.95 V 715.715 H 4853.05 V 551.969 h 138.81 V 389.309 H 4853.05 V 200.625 H 5016.8 V 29.2891 h -387.14 z"
         style="fill:none;stroke:#231f20;stroke-width:2.16;stroke-linecap:butt;stroke-linejoin:miter;stroke-miterlimit:22.9256;stroke-dasharray:none;stroke-opacity:1"
         id="path38" /></g></g></svg>
